<svg width="124" height="101" viewBox="0 0 124 101" fill="none" xmlns="http://www.w3.org/2000/svg">
<path d="M117.389 56.4904L117.424 55.2117L116.167 54.9758C113.931 54.556 112.242 52.5941 112.25 50.2449V50.24C112.25 48.8715 112.814 47.6389 113.728 46.763L112.105 44.2988L110.834 44.8373L97.257 14.7825L96.7898 13.7484C97.025 13.7824 97.2655 13.8 97.51 13.8C100.268 13.8 102.51 11.5584 102.51 8.8C102.51 6.04158 100.268 3.8 97.51 3.8C94.7388 3.8 92.51 6.04437 92.51 8.8C92.51 10.9092 93.8206 12.7162 95.6707 13.45L94.8008 14.3687L66.8308 43.9087L65.83 44.9657L66.8565 45.9978L68.26 47.4089V54.67V58.14V66.36C68.26 68.3935 66.5897 70.07 64.55 70.07H9.3C7.26655 70.07 5.59 68.3997 5.59 66.36V59.87C5.59 57.8384 7.25843 56.17 9.29 56.17H13.51H15.01V54.67V53.9C15.01 53.2284 15.5684 52.67 16.24 52.67H31.51C32.1816 52.67 32.74 53.2284 32.74 53.9V54.67V56.17H34.24H45.78H47.28V54.67V38.7C47.28 37.2284 48.4884 36.02 49.96 36.02H56.8887L57.2893 36.4207L58.3249 37.4562L59.3849 36.4458L93.8726 3.57429C97.0288 1.37862 98.9714 1.10424 100.453 1.92661C101.287 2.38934 102.186 3.29625 103.128 4.89964C104.067 6.49684 104.992 8.68751 105.922 11.5794L105.935 11.6199L105.95 11.6595L117.629 41.9565L116.233 42.5495L116.82 45.43H116.82H116.821H116.821H116.822H116.822H116.823H116.823H116.824H116.824H116.825H116.825H116.826H116.826H116.827H116.827H116.827H116.828H116.828H116.829H116.829H116.83H116.83H116.831H116.831H116.832H116.832H116.833H116.833H116.834H116.834H116.835H116.835H116.835H116.836H116.836H116.837H116.837H116.838H116.838H116.839H116.839H116.84H116.84H116.841H116.841H116.842H116.842H116.842H116.843H116.843H116.844H116.844H116.845H116.845H116.846H116.846H116.847H116.847H116.848H116.848H116.849H116.849H116.85H116.85H116.85H116.851H116.851H116.852H116.852H116.853H116.853H116.854H116.854H116.855H116.855H116.856H116.856H116.857H116.857H116.857H116.858H116.858H116.859H116.859H116.86H116.86H116.861H116.861H116.862H116.862H116.863H116.863H116.864H116.864H116.865H116.865H116.865H116.866H116.866H116.867H116.867H116.868H116.868H116.869H116.869H116.87H116.87H116.871H116.871H116.872H116.872H116.872H116.873H116.873H116.874H116.874H116.875H116.875H116.876H116.876H116.877H116.877H116.878H116.878H116.879H116.879H116.88H116.88H116.88H116.881H116.881H116.882H116.882H116.883H116.883H116.884H116.884H116.885H116.885H116.886H116.886H116.887H116.887H116.887H116.888H116.888H116.889H116.889H116.89H116.89H116.891H116.891H116.892H116.892H116.893H116.893H116.894H116.894H116.895H116.895H116.895H116.896H116.896H116.897H116.897H116.898H116.898H116.899H116.899H116.9H116.9H116.901H116.901H116.902H116.902H116.902H116.903H116.903H116.904H116.904H116.905H116.905H116.906H116.906H116.907H116.907H116.908H116.908H116.909H116.909H116.91H116.91H116.91H116.911H116.911H116.912H116.912H116.913H116.913H116.914H116.914H116.915H116.915H116.916H116.916H116.917H116.917H116.917H116.918H116.918H116.919H116.919H116.92H116.92H116.921H116.921H116.922H116.922H116.923H116.923H116.924H116.924H116.925H116.925H116.925H116.926H116.926H116.927H116.927H116.928H116.928H116.929H116.929H116.93H116.93H116.931H116.931H116.932H116.932H116.932H116.933H116.933H116.934H116.934H116.935H116.935H116.936H116.936H116.937H116.937H116.938H116.938H116.939H116.939H116.94H116.94H116.94H116.941H116.941H116.942H116.942H116.943H116.943H116.944H116.944H116.945H116.945H116.946H116.946H116.947H116.947H116.948H116.948H116.948H116.949H116.949H116.95H116.95H116.951H116.951H116.952H116.952H116.953H116.953H116.954H116.954H116.955H116.955H116.955H116.956H116.956H116.957H116.957H116.958H116.958H116.959H116.959H116.96H116.96H116.961H116.961H116.962H116.962H116.963H116.963H116.963H116.964H116.964H116.965H116.965H116.966H116.966H116.967H116.967H116.968H116.968H116.969H116.969H116.97H116.97H116.97H116.971H116.971H116.972H116.972H116.973H116.973H116.974H116.974H116.975H116.975H116.976H116.976H116.977H116.977H116.978H116.978H116.978H116.979H116.979H116.98H116.98H116.981H116.981H116.982H116.982H116.983H116.983H116.984H116.984H116.985H116.985H116.985H116.986H116.986H116.987H116.987H116.988H116.988H116.989H116.989H116.99H116.99H116.991H116.991H116.992H116.992H116.993H116.993H116.993H116.994H116.994H116.995H116.995H116.996H116.996H116.997H116.997H116.998H116.998H116.999H116.999H117H117H117H117.001H117.001H117.002H117.002H117.003H117.003H117.004H117.004H117.005H117.005H117.006H117.006H117.007H117.007H117.007H117.008H117.008H117.009H117.009H117.01H117.01H117.011H117.011H117.012H117.012H117.013H117.013H117.014H117.014H117.015H117.015H117.015H117.016H117.016H117.017H117.017H117.018H117.018H117.019H117.019H117.02H117.02H117.021H117.021H117.022H117.022H117.022H117.023H117.023H117.024H117.024H117.025H117.025H117.026H117.026H117.027H117.027H117.028H117.028H117.029H117.029H117.03H117.03H117.03H117.031H117.031H117.032H117.032H117.033H117.033H117.034H117.034H117.035H117.035H117.036H117.036H117.037H117.037H117.037H117.038H117.038H117.039H117.039H117.04H117.04H117.041H117.041H117.042H117.042H117.043H117.043H117.044H117.044H117.045H117.045H117.045H117.046H117.046H117.047H117.047H117.048H117.048H117.049H117.049H117.05H117.05H117.051H117.051H117.052H117.052H117.052H117.053H117.053H117.054H117.054H117.055H117.055H117.056H117.056H117.057H117.057H117.058H117.058H117.059H117.059H117.06H117.06C119.722 45.43 121.88 47.5884 121.88 50.25C121.88 52.2301 120.686 53.9323 118.974 54.6735L118.055 55.0716L118.07 56.0731L118.14 60.6131L118.144 60.8553L118.224 61.084C120.213 66.7864 119.881 71.1477 118.373 74.2826C116.862 77.4222 114.068 79.5474 110.708 80.5856C103.893 82.6919 95.2335 80.2078 91.4483 73.2344L91.4472 73.2324C91.2993 72.961 91.1518 72.6918 91.005 72.4241C89.6185 69.8947 88.3004 67.4902 87.4096 64.4586C87.3294 64.1822 87.3849 64.0684 87.4025 64.0354C87.4329 63.9783 87.5067 63.8976 87.6473 63.8403C87.7939 63.7806 87.9275 63.7822 87.9959 63.7998C87.9981 63.8004 88.0003 63.801 88.0022 63.8016L89.4353 66.9426L89.9735 68.1222L91.2185 67.7604L116.239 60.4904L117.29 60.1849L117.319 59.0904L117.389 56.4904ZM16.6815 86.7494C16.6816 86.7494 16.6825 86.7524 16.6841 86.7586C16.6822 86.7525 16.6814 86.7493 16.6815 86.7494ZM16.1844 86.261C16.1843 86.261 16.1814 86.2603 16.176 86.2586C16.1817 86.26 16.1844 86.2609 16.1844 86.261ZM15.0695 86.2585C15.0689 86.2585 15.0718 86.2576 15.0786 86.2559C15.0731 86.2576 15.0699 86.2584 15.0695 86.2585ZM14.5809 86.7557C14.5811 86.7556 14.5803 86.7585 14.5786 86.764C14.58 86.7584 14.5808 86.7557 14.5809 86.7557ZM14.5785 87.8704C14.5786 87.8714 14.5777 87.8685 14.5759 87.8614C14.5775 87.8666 14.5783 87.8697 14.5785 87.8704ZM15.0757 88.3591C15.0758 88.359 15.0787 88.3597 15.084 88.3615C15.0782 88.36 15.0755 88.3591 15.0757 88.3591ZM16.1906 88.3615C16.1907 88.3616 16.1877 88.3625 16.1814 88.3641C16.1873 88.3622 16.1905 88.3615 16.1906 88.3615ZM16.6791 87.8643C16.6789 87.8646 16.6796 87.8617 16.6814 87.856C16.68 87.8614 16.6792 87.8641 16.6791 87.8643ZM57.1009 86.7457C57.1012 86.7452 57.1004 86.7481 57.0986 86.754C57.0999 86.7488 57.1007 86.7462 57.1009 86.7457ZM57.5961 88.3491C57.5972 88.3494 57.5999 88.3501 57.6041 88.3515C57.597 88.3496 57.5945 88.3488 57.5961 88.3491ZM59.1991 87.8542C59.1988 87.855 59.1995 87.8522 59.2014 87.846C59.2002 87.851 59.1994 87.8536 59.1991 87.8542ZM59.2016 86.74C59.2012 86.7381 59.2021 86.7407 59.2041 86.7486C59.2027 86.7441 59.2019 86.7412 59.2016 86.74ZM58.7043 86.251C58.7044 86.2511 58.7015 86.2503 58.696 86.2486C58.7016 86.25 58.7042 86.2508 58.7043 86.251ZM14.09 75.22H59.57C66.2123 75.22 71.66 80.6591 71.66 87.31C71.66 93.9523 66.2209 99.4 59.57 99.4H14.092C7.43848 99.3911 2 93.9512 2 87.3C2 80.6592 7.43771 75.22 14.09 75.22ZM69.59 87.3C69.59 80.9816 64.4684 75.86 58.15 75.86C51.8316 75.86 46.71 80.9816 46.71 87.3C46.71 93.6184 51.8316 98.74 58.15 98.74C64.4684 98.74 69.59 93.6184 69.59 87.3ZM27.07 87.3C27.07 80.9816 21.9484 75.86 15.63 75.86C9.31157 75.86 4.19 80.9816 4.19 87.3C4.19 93.6184 9.31157 98.74 15.63 98.74C21.9484 98.74 27.07 93.6184 27.07 87.3Z" stroke="black" stroke-width="3"/>
</svg>
