<svg width="512" height="512" viewBox="0 0 512 512" fill="none" xmlns="http://www.w3.org/2000/svg">
<path d="M283.78 372.357V180.197C283.78 165.477 280.614 152.713 274.282 141.903C268.192 130.863 258.937 122.354 246.515 116.373C234.094 110.394 218.749 107.404 200.482 107.404C183.433 107.404 168.453 110.164 155.544 115.684C142.879 121.203 132.893 128.448 125.586 137.418C118.523 146.388 114.991 156.048 114.991 166.397H47.4026C47.4026 153.058 51.0561 139.833 58.3633 126.724C65.6697 113.614 76.1434 101.769 89.7828 91.1894C103.665 80.3793 120.228 71.8697 139.469 65.6599C158.955 59.2197 180.631 56 204.501 56C233.241 56 258.572 60.5996 280.493 69.7995C302.656 78.9994 319.949 92.914 332.371 111.543C345.037 129.943 351.369 153.058 351.369 180.887V354.763C351.369 367.183 352.465 380.407 354.657 394.437C357.093 408.467 360.624 420.542 365.252 430.661V436.181H294.741C291.331 428.821 288.652 419.046 286.703 406.856C284.754 394.437 283.78 382.937 283.78 372.357ZM295.471 209.867L296.202 254.715H227.883C208.641 254.715 191.47 256.21 176.369 259.2C161.268 261.96 148.603 266.215 138.373 271.965C128.144 277.715 120.35 284.96 114.991 293.699C109.633 302.209 106.954 312.214 106.954 323.713C106.954 335.443 109.754 346.138 115.356 355.797C120.958 365.457 129.362 373.162 140.566 378.912C152.013 384.432 166.018 387.192 182.58 387.192C203.282 387.192 221.55 383.052 237.381 374.772C253.213 366.492 265.757 356.373 275.012 344.413C284.511 332.453 289.626 320.838 290.356 309.569L319.218 340.273C317.514 349.933 312.886 360.627 305.336 372.357C297.786 384.087 287.677 395.357 275.012 406.167C262.591 416.746 247.733 425.601 230.44 432.731C213.391 439.631 194.149 443.081 172.716 443.081C145.924 443.081 122.42 438.136 102.204 428.246C82.2324 418.356 66.6439 405.132 55.44 388.572C44.48 371.782 39 353.038 39 332.338C39 312.329 43.1407 294.735 51.4213 279.554C59.7026 264.145 71.6368 251.38 87.2253 241.261C102.813 230.911 121.567 223.091 143.488 217.801C165.409 212.511 189.887 209.867 216.923 209.867H295.471Z" fill="#D50C0C"/>
<path d="M399.886 357.172V85.7715H467.882V357.172H399.886ZM473 429.161C473 436.686 469.71 443.04 463.129 448.224C456.306 453.408 446.314 456 433.153 456C420.236 456 410.366 453.408 403.542 448.224C396.474 443.04 392.94 436.686 392.94 429.161C392.94 421.971 396.474 415.783 403.542 410.599C410.366 405.583 420.236 403.075 433.153 403.075C446.314 403.075 456.306 405.583 463.129 410.599C469.71 415.783 473 421.971 473 429.161Z" fill="#D50C0C"/>
</svg>
