<svg width="100" height="124" viewBox="0 0 100 124" fill="none" xmlns="http://www.w3.org/2000/svg">
<path fill-rule="evenodd" clip-rule="evenodd" d="M5.94 40.34H21.78V8.47C21.78 3.95 25.48 0.25 30 0.25C34.52 0.25 38.22 3.95 38.22 8.47V40.34H62.35V8.47C62.35 3.95 66.05 0.25 70.57 0.25C75.09 0.25 78.79 3.95 78.79 8.47V40.34H94.21C97.07 40.34 99.4 42.68 99.4 45.53V51.55C99.4 54.41 97.06 56.74 94.21 56.74H5.94C3.08 56.74 0.75 54.4 0.75 51.55V45.53C0.75 42.67 3.09 40.34 5.94 40.34ZM10.02 56.84V69.42C10.01 91.48 19.81 102.27 42.29 104.98V123.13H58.73V104.78C80.98 102.64 91 89.56 91 68.19V56.84H10.02ZM28.61 61.42H72.4V67.93H28.61V61.42Z" stroke="black" stroke-width="3" stroke-miterlimit="2.6131"/>
</svg>
